<svg xmlns="http://www.w3.org/2000/svg" width="40" height="29.304" viewBox="0 0 40 29.304">
  <path id="icon_group" d="M-1215.539,11.442a1.35,1.35,0,0,1-1.223-1.26,7.98,7.98,0,0,1,6.129-8.144,6.738,6.738,0,0,1,4.744.661,10.683,10.683,0,0,1,9.128-5.059,10.66,10.66,0,0,1,9.107,5.06,6.873,6.873,0,0,1,3.528-.836,7.944,7.944,0,0,1,7.262,6.717,11.778,11.778,0,0,1,.084,1.451,1.332,1.332,0,0,1-1.362,1.413,1.341,1.341,0,0,1-1.3-1.439,5.184,5.184,0,0,0-2.88-4.925,4.041,4.041,0,0,0-3.911-.119c-.061.03-.115.073-.088.055.258,1.222.528,2.392.743,3.572a7.5,7.5,0,0,1,.075,1.493,1.3,1.3,0,0,1-1.273,1.282,1.33,1.33,0,0,1-1.365-1.193,22.773,22.773,0,0,0-.5-3.274A8.913,8.913,0,0,0-1193.976.8a7.931,7.931,0,0,0-9.266,2.791,10.239,10.239,0,0,0-2.119,5.763c-.015.249-.013.5-.038.748a1.322,1.322,0,0,1-1.386,1.259,1.323,1.323,0,0,1-1.264-1.381,13.085,13.085,0,0,1,.752-4.4c.055-.157.11-.313.176-.5a3.876,3.876,0,0,0-3-.422,5.3,5.3,0,0,0-3.989,5.161,2.8,2.8,0,0,1-.029.579,1.334,1.334,0,0,1-1.3,1.053C-1215.469,11.446-1215.5,11.445-1215.539,11.442Zm30.963-12.271a5.081,5.081,0,0,1-5-5.079,5.07,5.07,0,0,1,5.243-5.04,5.066,5.066,0,0,1,4.889,5.179,5.078,5.078,0,0,1-5.048,4.941Zm.063-7.455a2.4,2.4,0,0,0-2.394,2.422,2.406,2.406,0,0,0,2.409,2.368,2.4,2.4,0,0,0,2.39-2.426,2.4,2.4,0,0,0-2.4-2.365Zm-29.932,2.5a5.055,5.055,0,0,1,4.935-5.168,5.045,5.045,0,0,1,5.174,4.968,5.045,5.045,0,0,1-5.037,5.151h-.073A5.064,5.064,0,0,1-1214.445-5.78Zm2.666-.129a2.389,2.389,0,0,0,2.392,2.416A2.385,2.385,0,0,0-1207-5.872a2.378,2.378,0,0,0-2.35-2.412h-.025A2.379,2.379,0,0,0-1211.779-5.91Zm8.3-4.589a6.526,6.526,0,0,1,5.6-7.288.9.9,0,0,0,.189-.071h1.5c.44.113.887.2,1.319.341a6.6,6.6,0,0,1,4.489,6.751,6.586,6.586,0,0,1-5.605,5.99,7.133,7.133,0,0,1-.969.067A6.507,6.507,0,0,1-1203.476-10.5Zm2.617-.784a3.9,3.9,0,0,0,3.906,3.917,3.917,3.917,0,0,0,3.927-3.905,3.929,3.929,0,0,0-3.872-3.922h-.027A3.915,3.915,0,0,0-1200.859-11.282Z" transform="translate(1216.779 17.858)" fill="#3e8bce"/>
</svg>
