<svg xmlns="http://www.w3.org/2000/svg" width="39.995" height="40" viewBox="0 0 39.995 40">
  <path id="icon_research" d="M-2815.1,512.523a4.574,4.574,0,0,1-2.081-.993,3.8,3.8,0,0,1-.251-5.453q3.5-3.594,7.1-7.094a3.617,3.617,0,0,1,4.022-.743.49.49,0,0,0,.627-.137c.832-.859,1.687-1.7,2.541-2.548a13.981,13.981,0,0,1-2.687-4.92,14,14,0,0,1,9.317-17.506,14.017,14.017,0,0,1,17.789,10.718c.1.547.17,1.1.254,1.651v2.031c-.127.741-.222,1.49-.386,2.223a13.972,13.972,0,0,1-11.471,10.594,13.832,13.832,0,0,1-10.932-2.953c-.051-.04-.1-.081-.155-.119a.723.723,0,0,0-.1-.044c-.882.885-1.775,1.776-2.656,2.679a.38.38,0,0,0-.044.331,3.867,3.867,0,0,1-.971,4.463c-1.992,1.984-3.991,3.961-5.958,5.97a5.518,5.518,0,0,1-2.939,1.852Zm6.271-11.765q-3.416,3.4-6.818,6.821a1.49,1.49,0,0,0-.042,2.138,1.49,1.49,0,0,0,2.166,0q3.421-3.4,6.812-6.828a3.163,3.163,0,0,0,.483-.856,1.574,1.574,0,0,0-.913-1.6,1.626,1.626,0,0,0-.64-.14A1.465,1.465,0,0,0-2808.828,500.758Zm4.729-14.257a11.617,11.617,0,0,0,11.578,11.66,11.631,11.631,0,0,0,11.7-11.619,11.645,11.645,0,0,0-11.624-11.667h-.024A11.633,11.633,0,0,0-2804.1,486.5Zm16.286,5.3a1.944,1.944,0,0,1-.036-.464q0-2.418,0-4.836,0-2.438,0-4.875a1.182,1.182,0,0,1,1.173-1.281,1.188,1.188,0,0,1,1.167,1.254q.007,4.934,0,9.868a1.174,1.174,0,0,1-1.042,1.211,1.2,1.2,0,0,1-.126.007A1.165,1.165,0,0,1-2787.813,491.805Zm-10.6.881a1.165,1.165,0,0,1-1.149-1.257q-.007-1.792,0-3.584a1.177,1.177,0,0,1,1.164-1.248,1.191,1.191,0,0,1,1.175,1.244c.008.6,0,1.195,0,1.792s0,1.195,0,1.792a1.18,1.18,0,0,1-1.174,1.261Zm6.661-1.238c-.006-1,0-2,0-3,0-.975,0-1.949,0-2.924a1.182,1.182,0,0,1,1.145-1.269,1.193,1.193,0,0,1,1.2,1.264q.008,2.963,0,5.925a1.172,1.172,0,0,1-1.17,1.243h0A1.162,1.162,0,0,1-2791.753,491.449Zm-2.739,1.238a1.169,1.169,0,0,1-1.166-1.28c0-1.235,0-2.47,0-3.7s0-2.47,0-3.7a1.189,1.189,0,0,1,1.148-1.305,1.2,1.2,0,0,1,1.193,1.307q0,3.7,0,7.409a1.179,1.179,0,0,1-1.173,1.279Z" transform="translate(2818.469 -472.523)" fill="#3e8bce"/>
</svg>
