<svg xmlns="http://www.w3.org/2000/svg" width="18" height="12.729" viewBox="0 0 18 12.729">
  <path id="icon_yt" d="M-2390.513,2010.88v2.107c-.009.063-.02.125-.027.188-.1.942-.188,1.884-.292,2.826a2.226,2.226,0,0,1-1.933,1.98c-.885.092-1.77.2-2.658.226q-2.4.083-4.8.081a47.944,47.944,0,0,1-5.875-.278,2.259,2.259,0,0,1-2.046-1.809c-.128-.778-.226-1.563-.292-2.349a23.689,23.689,0,0,1,.1-4.94,8.827,8.827,0,0,1,.24-1.433,2.148,2.148,0,0,1,1.963-1.61q1.754-.18,3.519-.249,3.583-.136,7.167.037c.917.043,1.834.125,2.744.245a2.175,2.175,0,0,1,1.822,1.723c.118.8.2,1.612.294,2.42C-2390.548,2010.321-2390.535,2010.6-2390.513,2010.88Zm-10.776-1.667v5.447l4.684-2.719Z" transform="translate(2408.513 -2005.56)" fill="#ebebeb"/>
</svg>
