<svg xmlns="http://www.w3.org/2000/svg" width="18" height="14.689" viewBox="0 0 18 14.689">
  <path id="icon_tw" d="M-3402.1,1775.457h-1.236a1.26,1.26,0,0,0-.153-.029,10.356,10.356,0,0,1-4.312-1.267c-.188-.1-.371-.217-.556-.326a7.713,7.713,0,0,0,5.417-1.566,3.793,3.793,0,0,1-2.142-.748,3.505,3.505,0,0,1-1.274-1.779c.258,0,.516.01.772,0s.519-.049.778-.076v-.052a3.724,3.724,0,0,1-2.075-1.308,3.625,3.625,0,0,1-.814-2.332c.271.1.524.212.785.291a2.278,2.278,0,0,0,.844.119,3.694,3.694,0,0,1-1.083-4.915,10.6,10.6,0,0,0,3.4,2.735,10.391,10.391,0,0,0,4.225,1.12c-.009-.051-.013-.074-.017-.1a3.657,3.657,0,0,1,1.331-3.638,3.673,3.673,0,0,1,4.894.242.256.256,0,0,0,.293.08c.4-.131.812-.237,1.207-.385.321-.12.624-.286.958-.444a3.859,3.859,0,0,1-1.52,1.981,7.2,7.2,0,0,0,2.021-.539c-.045.07-.065.1-.088.138a7.278,7.278,0,0,1-1.626,1.679.243.243,0,0,0-.125.228,10.168,10.168,0,0,1-1.076,5.015,10.174,10.174,0,0,1-7.989,5.776C-3401.536,1775.4-3401.816,1775.424-3402.1,1775.457Z" transform="translate(3408.353 -1760.768)" fill="#ebebeb"/>
</svg>
