<svg xmlns="http://www.w3.org/2000/svg" width="17.944" height="18" viewBox="0 0 17.944 18">
  <path id="icon_ig" d="M-3454.835-4098.488c-.11-.01-.22-.025-.33-.028a9.967,9.967,0,0,1-2.143-.219,4.6,4.6,0,0,1-3.236-2.593,6.457,6.457,0,0,1-.541-2.734c-.021-1.937-.037-3.875-.029-5.812a12.459,12.459,0,0,1,.2-2.639,4.624,4.624,0,0,1,2.617-3.378,6.548,6.548,0,0,1,2.7-.546c2.481-.059,4.963-.087,7.443.032a5.7,5.7,0,0,1,2.092.476,4.688,4.688,0,0,1,2.783,3.819c.048.311.072.625.107.938v7.238c-.01.063-.022.125-.029.188-.038.354-.056.711-.115,1.062a4.78,4.78,0,0,1-1.54,2.877,5.308,5.308,0,0,1-3.294,1.249c-.425.029-.85.047-1.275.071Zm.51-16.338a16.337,16.337,0,0,0-2.4.155,2.912,2.912,0,0,0-2.554,2.372,9.508,9.508,0,0,0-.189,1.863q-.049,2.186-.027,4.374c.01,1,.039,2,.134,3a2.983,2.983,0,0,0,1.436,2.356,3.828,3.828,0,0,0,1.907.529c1.293.047,2.586.068,3.879.1v-.028c.474,0,.949.014,1.422,0,1.023-.037,2.053-.024,3.066-.152a2.931,2.931,0,0,0,2.656-2.35,7.734,7.734,0,0,0,.192-1.7q.046-2.722.027-5.446a18.417,18.417,0,0,0-.13-2.171,3,3,0,0,0-2.519-2.718,10.425,10.425,0,0,0-1.884-.168q-1.445-.021-2.89-.021Q-3453.259-4114.839-3454.325-4114.826Zm2.183,11.966a4.628,4.628,0,0,1-4.611-4.636,4.624,4.624,0,0,1,4.641-4.6,4.618,4.618,0,0,1,4.6,4.643,4.622,4.622,0,0,1-4.6,4.6Zm0-7.616a2.986,2.986,0,0,0-2.988,3,2.985,2.985,0,0,0,2.991,2.992,2.985,2.985,0,0,0,3-2.986,2.986,2.986,0,0,0-3-3Zm4.8-.732a1.078,1.078,0,0,1-1.063-1.083,1.072,1.072,0,0,1,1.074-1.07,1.066,1.066,0,0,1,1.078,1.081,1.072,1.072,0,0,1-1.079,1.073Z" transform="translate(3461.115 4116.488)" fill="#ebebeb"/>
</svg>
