<svg xmlns="http://www.w3.org/2000/svg" width="33.459" height="40" viewBox="0 0 33.459 40">
  <path id="icon_lab" d="M-1583.025,2876.19a1.979,1.979,0,0,1,.923.9c.512.889,1.052,1.762,1.6,2.675.328-.194.635-.382.947-.559a1.157,1.157,0,0,1,1.706.437q4.185,6.953,8.36,13.912a1.171,1.171,0,0,1-.441,1.736c-.286.178-.576.349-.891.54.569.948,1.127,1.869,1.675,2.8a1.986,1.986,0,0,1,.251.565,1.126,1.126,0,0,1-.573,1.26q-1.95,1.186-3.912,2.352a1.169,1.169,0,0,1-1.712-.431c-.516-.843-1.019-1.694-1.529-2.541-.072-.12-.151-.236-.236-.37-.335.2-.644.387-.958.567a1.162,1.162,0,0,1-1.707-.437c-.59-.966-1.169-1.938-1.753-2.907-.067-.11-.137-.218-.221-.351-.424.253-.82.529-1.25.731a2.859,2.859,0,0,1-1.026.285c-1.038.056-2.092-.039-3.115.1a3.435,3.435,0,0,0-2.855,3.787,3.5,3.5,0,0,0,3.37,3.146c2.277.03,4.556.012,6.834.01a5.841,5.841,0,0,1,5.8,3.8c.015.035.037.067.078.14.135-.078.268-.151.4-.229q4.052-2.46,8.1-4.92a1.165,1.165,0,0,1,1.668.367,1.178,1.178,0,0,1-.438,1.625c-.065.042-.133.082-.2.123q-4.451,2.7-8.905,5.4a.578.578,0,0,0-.328.584c.019.832.007,1.665.007,2.562h.424c.989,0,1.979,0,2.968,0a1.2,1.2,0,0,1,1.291,1.171,1.2,1.2,0,0,1-1.291,1.171q-9.255,0-18.51,0a1.171,1.171,0,0,1-1.284-1.166,1.17,1.17,0,0,1,1.275-1.176c1.118,0,2.236,0,3.382,0v-2.388c-.776-.035-1.542-.038-2.3-.108a10.576,10.576,0,0,1-9.209-8.5,10.541,10.541,0,0,1,7.948-12.237,6.641,6.641,0,0,1,1.5-.231,3.406,3.406,0,0,0,1.672-.715l-2.222-3.7c-.074-.123-.152-.243-.219-.369a1.159,1.159,0,0,1,.406-1.6c.315-.2.642-.392,1-.608l-.927-1.544c-.294-.491-.6-.976-.878-1.475a1.121,1.121,0,0,1,.342-1.552c1.463-.893,2.945-1.756,4.42-2.631Zm-.99,30.547c-.184,0-.389.009-.593,0a19.951,19.951,0,0,1-2.989-.181,5.781,5.781,0,0,1-4.493-6.074,5.8,5.8,0,0,1,5-5.38c.964-.116,1.948-.056,2.922-.085a.966.966,0,0,0,.445-.091q1.782-1.048,3.548-2.123a1.461,1.461,0,0,0,.738-1.219,1.464,1.464,0,0,0-.736-1.412,1.48,1.48,0,0,0-1.626.009c-1.215.729-2.418,1.481-3.646,2.188a3.175,3.175,0,0,1-1.023.3c-.523.093-1.065.094-1.581.213a8.193,8.193,0,0,0-6.363,7.15,8.227,8.227,0,0,0,4.59,8.226,9.134,9.134,0,0,0,4.77.8Zm11.964-12.9-7.241-12.053-6.025,3.623,1.83,3.042a3.978,3.978,0,0,1,5.726.848,3.818,3.818,0,0,1,.65,2.632,4.026,4.026,0,0,1-2.37,3.191l1.408,2.337Zm-3.656,19.993c0-1.283.054-2.521-.012-3.753a3.479,3.479,0,0,0-3.621-3.334,3.509,3.509,0,0,0-3.384,3.54c-.012.885,0,1.77,0,2.655v.892Zm-8.009-34.857-2.008,1.211,1.211,2,2-1.207Zm10.884,18.07-2.008,1.207,1.194,1.985,2.006-1.207Z" transform="translate(1596.781 -2876.19)" fill="#3e8bce"/>
</svg>
