<svg xmlns="http://www.w3.org/2000/svg" width="8.97" height="18" viewBox="0 0 8.97 18">
  <path id="icon_fb" d="M-3129.95,2249.7c.308.023.617.046.925.071.191.016.382.035.578.054v2.865c-.079,0-.153,0-.226,0-.608.01-1.218-.008-1.823.037a1.03,1.03,0,0,0-1.077,1.04c-.056.885-.014,1.777-.014,2.686h2.874l-.4,3.2h-2.5v8.047h-3.2v-8.036h-2.6v-3.2h2.595c0-.084,0-.151,0-.219.008-.943-.017-1.888.033-2.83a3.827,3.827,0,0,1,1.309-2.836,3.773,3.773,0,0,1,2.028-.841c.056-.007.112-.023.167-.035Z" transform="translate(3137.417 -2249.698)" fill="#ebebeb"/>
</svg>
