<svg xmlns="http://www.w3.org/2000/svg" width="18" height="18" viewBox="0 0 18 18">
  <path id="icon_in" d="M-4242.139-4302.035c0-2.091,0-4.182-.008-6.272a7.767,7.767,0,0,0-.1-1.17,1.649,1.649,0,0,0-1.57-1.573,1.95,1.95,0,0,0-2.362,1.665,7.889,7.889,0,0,0-.132,1.447c-.015,1.968-.008,3.936-.008,5.9h-3.727q0-5.887,0-11.774v-.235h3.582v1.67c.059-.073.085-.1.1-.132a3.783,3.783,0,0,1,2.817-1.8,5.667,5.667,0,0,1,2.2.122,3.425,3.425,0,0,1,2.582,2.518,8.459,8.459,0,0,1,.319,1.918c.006.1.022.195.034.292v7.418Zm-13.993,0c0-.081.014-.163.014-.244q0-5.756,0-11.512v-.253h3.736v.234q0,5.766,0,11.53c0,.082.007.163.011.245Zm1.858-13.657a2.185,2.185,0,0,1-2.139-2.254,2.169,2.169,0,0,1,2.227-2.088,2.169,2.169,0,0,1,2.1,2.22,2.189,2.189,0,0,1-2.145,2.123Z" transform="translate(4256.412 4320.034)" fill="#ebebeb"/>
</svg>
