<svg xmlns="http://www.w3.org/2000/svg" width="100" height="99.97" viewBox="0 0 100 99.97">
  <path id="icon_play" d="M47.265-2311.03c-1.286-.147-2.576-.265-3.856-.447a49.367,49.367,0,0,1-28.442-13.965A48.91,48.91,0,0,1,.758-2352.6c-.323-1.884-.509-3.789-.758-5.684v-5.468c.061-.379.153-.756.18-1.137A47.634,47.634,0,0,1,3.414-2379.2a50.007,50.007,0,0,1,57.6-30.58,50.109,50.109,0,0,1,37.609,60.38,49.955,49.955,0,0,1-41.458,37.823c-1.409.2-2.824.364-4.236.545Zm-36.752-50.405a39.562,39.562,0,0,0,39.508,39.871c21.683,0,39.478-17.674,39.448-39.092a39.5,39.5,0,0,0-39.442-39.821H50C28.317-2400.478,10.582-2382.834,10.512-2361.435Zm30.022,19.455a3.688,3.688,0,0,1-1.952-3.648c.013-5.141,0-10.281,0-15.421,0-5.108-.011-10.216,0-15.323.007-2.42,1.193-3.947,3.306-4.016a4.421,4.421,0,0,1,2.521.773q10.915,7.714,21.744,15.553a3.529,3.529,0,0,1,.031,6.059q-10.874,7.856-21.8,15.641a3.834,3.834,0,0,1-2.242.792A3.539,3.539,0,0,1,40.534-2341.98Z" transform="translate(0 2411)" fill="#fff"/>
</svg>
